<svg xmlns="http://www.w3.org/2000/svg" width="1920" height="1080"><path d="M382,1302L-12,1344L1002,1326Z" fill="#a6b4a2" stroke="#a6b4a2" stroke-width="1.51"/><path d="M76,-246L720,-238L1181,-242Z" fill="#fcbc83" stroke="#fcbc83" stroke-width="1.51"/><path d="M1181,-242L1333,-206L1473,-195Z" fill="#d1a98b" stroke="#d1a98b" stroke-width="1.51"/><path d="M1002,1326L-12,1344L1518,1339Z" fill="#8ebcd3" stroke="#8ebcd3" stroke-width="1.51"/><path d="M1144,1327L1002,1326L1518,1339Z" fill="#66acce" stroke="#66acce" stroke-width="1.51"/><path d="M1473,-195L1674,-208L1783,-238Z" fill="#ba9f89" stroke="#ba9f89" stroke-width="1.51"/><path d="M1181,-242L1473,-195L1783,-238Z" fill="#c6a389" stroke="#c6a389" stroke-width="1.51"/><path d="M2034,807L1964,892L2048,1043Z" fill="#3fa6d1" stroke="#3fa6d1" stroke-width="1.51"/><path d="M2034,807L2048,1043L2065,736Z" fill="#4aa7d0" stroke="#4aa7d0" stroke-width="1.51"/><path d="M1792,1282L1518,1339L2091,1304Z" fill="#0299c5" stroke="#0299c5" stroke-width="1.51"/><path d="M1978,1244L1792,1282L2091,1304Z" fill="#0295be" stroke="#0295be" stroke-width="1.51"/><path d="M2048,1043L2027,1093L2091,1304Z" fill="#0298c4" stroke="#0298c4" stroke-width="1.51"/><path d="M2027,1093L1978,1244L2091,1304Z" fill="#0295bf" stroke="#0295bf" stroke-width="1.51"/><path d="M2065,736L2048,1043L2091,1304Z" fill="#0c9fcd" stroke="#0c9fcd" stroke-width="1.51"/><path d="M1986,351L1949,578L2095,587Z" fill="#89bdd8" stroke="#89bdd8" stroke-width="1.51"/><path d="M2065,736L2091,1304L2095,587Z" fill="#47a5ce" stroke="#47a5ce" stroke-width="1.51"/><path d="M1972,287L1986,351L2125,352Z" fill="#a0c1cd" stroke="#a0c1cd" stroke-width="1.51"/><path d="M1986,351L2095,587L2125,352Z" fill="#92c0d6" stroke="#92c0d6" stroke-width="1.51"/><path d="M2095,587L2091,1304L2125,352Z" fill="#61aace" stroke="#61aace" stroke-width="1.51"/><path d="M1972,287L2125,352L2126,243Z" fill="#a1bdc0" stroke="#a1bdc0" stroke-width="1.51"/><path d="M2076,90L1972,287L2126,243Z" fill="#a6b6a8" stroke="#a6b6a8" stroke-width="1.51"/><path d="M2090,-48L2076,90L2126,243Z" fill="#acac87" stroke="#acac87" stroke-width="1.51"/><path d="M1783,-238L1927,-186L2131,-173Z" fill="#af967a" stroke="#af967a" stroke-width="1.51"/><path d="M1953,-76L2090,-48L2131,-173Z" fill="#ad9b76" stroke="#ad9b76" stroke-width="1.51"/><path d="M1927,-186L1953,-76L2131,-173Z" fill="#ae9978" stroke="#ae9978" stroke-width="1.51"/><path d="M2090,-48L2126,243L2131,-173Z" fill="#ada376" stroke="#ada376" stroke-width="1.51"/><path d="M250,1306L-12,1344L382,1302Z" fill="#aea678" stroke="#aea678" stroke-width="1.51"/><path d="M1889,87L1972,287L2076,90Z" fill="#acb59f" stroke="#acb59f" stroke-width="1.51"/><path d="M1953,-76L2076,90L2090,-48Z" fill="#afa47a" stroke="#afa47a" stroke-width="1.51"/><path d="M1949,578L2065,736L2095,587Z" fill="#75b4d4" stroke="#75b4d4" stroke-width="1.51"/><path d="M1953,-76L1889,87L2076,90Z" fill="#b3ac80" stroke="#b3ac80" stroke-width="1.51"/><path d="M1949,578L1912,743L2065,736Z" fill="#6eb3d7" stroke="#6eb3d7" stroke-width="1.51"/><path d="M1964,892L1893,944L2048,1043Z" fill="#31a6d4" stroke="#31a6d4" stroke-width="1.51"/><path d="M1912,743L2034,807L2065,736Z" fill="#60aed4" stroke="#60aed4" stroke-width="1.51"/><path d="M1937,1084L1978,1244L2027,1093Z" fill="#039cc9" stroke="#039cc9" stroke-width="1.51"/><path d="M1893,944L1937,1084L2048,1043Z" fill="#11a3d3" stroke="#11a3d3" stroke-width="1.51"/><path d="M1937,1084L2027,1093L2048,1043Z" fill="#039fcd" stroke="#039fcd" stroke-width="1.51"/><path d="M1912,743L1964,892L2034,807Z" fill="#57add5" stroke="#57add5" stroke-width="1.51"/><path d="M1756,442L1949,578L1986,351Z" fill="#93c5e1" stroke="#93c5e1" stroke-width="1.51"/><path d="M1912,743L1826,853L1964,892Z" fill="#55aed9" stroke="#55aed9" stroke-width="1.51"/><path d="M1889,87L1755,221L1972,287Z" fill="#adbdb1" stroke="#adbdb1" stroke-width="1.51"/><path d="M1937,1084L1792,1282L1978,1244Z" fill="#029bc8" stroke="#029bc8" stroke-width="1.51"/><path d="M1972,287L1756,442L1986,351Z" fill="#a0c9dd" stroke="#a0c9dd" stroke-width="1.51"/><path d="M1783,1088L1792,1282L1937,1084Z" fill="#03a0d0" stroke="#03a0d0" stroke-width="1.51"/><path d="M1755,221L1756,442L1972,287Z" fill="#a7c8d6" stroke="#a7c8d6" stroke-width="1.51"/><path d="M1788,597L1912,743L1949,578Z" fill="#77bade" stroke="#77bade" stroke-width="1.51"/><path d="M1756,442L1788,597L1949,578Z" fill="#88c2e3" stroke="#88c2e3" stroke-width="1.51"/><path d="M76,-246L307,-212L720,-238Z" fill="#f7ae46" stroke="#f7ae46" stroke-width="1.51"/><path d="M1744,36L1889,87L1953,-76Z" fill="#b6ae86" stroke="#b6ae86" stroke-width="1.51"/><path d="M1748,-93L1744,36L1953,-76Z" fill="#b6aa87" stroke="#b6aa87" stroke-width="1.51"/><path d="M1826,853L1893,944L1964,892Z" fill="#45acd9" stroke="#45acd9" stroke-width="1.51"/><path d="M1893,944L1809,987L1937,1084Z" fill="#1fa7d9" stroke="#1fa7d9" stroke-width="1.51"/><path d="M1927,-186L1748,-93L1953,-76Z" fill="#b3a081" stroke="#b3a081" stroke-width="1.51"/><path d="M1809,987L1783,1088L1937,1084Z" fill="#04a6d9" stroke="#04a6d9" stroke-width="1.51"/><path d="M1587,1286L1518,1339L1792,1282Z" fill="#1ea0cd" stroke="#1ea0cd" stroke-width="1.51"/><path d="M1788,597L1749,745L1912,743Z" fill="#70b8e1" stroke="#70b8e1" stroke-width="1.51"/><path d="M1783,-238L1748,-93L1927,-186Z" fill="#b49d82" stroke="#b49d82" stroke-width="1.51"/><path d="M1749,745L1826,853L1912,743Z" fill="#60b4de" stroke="#60b4de" stroke-width="1.51"/><path d="M1744,36L1755,221L1889,87Z" fill="#b4b99e" stroke="#b4b99e" stroke-width="1.51"/><path d="M1826,853L1809,987L1893,944Z" fill="#3dacdc" stroke="#3dacdc" stroke-width="1.51"/><path d="M1744,36L1658,73L1755,221Z" fill="#b7bca2" stroke="#b7bca2" stroke-width="1.51"/><path d="M1652,273L1652,369L1755,221Z" fill="#acccd6" stroke="#acccd6" stroke-width="1.51"/><path d="M1755,221L1652,369L1756,442Z" fill="#a7cfe5" stroke="#a7cfe5" stroke-width="1.51"/><path d="M1783,1088L1647,1112L1792,1282Z" fill="#04a4d5" stroke="#04a4d5" stroke-width="1.51"/><path d="M1689,854L1809,987L1826,853Z" fill="#46b0e0" stroke="#46b0e0" stroke-width="1.51"/><path d="M1749,745L1689,854L1826,853Z" fill="#59b5e3" stroke="#59b5e3" stroke-width="1.51"/><path d="M1674,-208L1748,-93L1783,-238Z" fill="#b7a087" stroke="#b7a087" stroke-width="1.51"/><path d="M1669,1046L1783,1088L1809,987Z" fill="#04aae0" stroke="#04aae0" stroke-width="1.51"/><path d="M1689,854L1669,1046L1809,987Z" fill="#33b0e3" stroke="#33b0e3" stroke-width="1.51"/><path d="M1295,1295L1144,1327L1518,1339Z" fill="#5aa9ce" stroke="#5aa9ce" stroke-width="1.51"/><path d="M1590,710L1749,745L1788,597Z" fill="#74bee8" stroke="#74bee8" stroke-width="1.51"/><path d="M1586,594L1590,710L1788,597Z" fill="#80c3eb" stroke="#80c3eb" stroke-width="1.51"/><path d="M1756,442L1586,594L1788,597Z" fill="#8ac7ea" stroke="#8ac7ea" stroke-width="1.51"/><path d="M1647,1112L1587,1286L1792,1282Z" fill="#08a3d3" stroke="#08a3d3" stroke-width="1.51"/><path d="M1669,1046L1647,1112L1783,1088Z" fill="#05aadf" stroke="#05aadf" stroke-width="1.51"/><path d="M1627,-2L1744,36L1748,-93Z" fill="#bbb18e" stroke="#bbb18e" stroke-width="1.51"/><path d="M1658,73L1652,273L1755,221Z" fill="#b3c3ba" stroke="#b3c3ba" stroke-width="1.51"/><path d="M1652,369L1586,594L1756,442Z" fill="#98ceee" stroke="#98ceee" stroke-width="1.51"/><path d="M1590,710L1689,854L1749,745Z" fill="#65bae8" stroke="#65bae8" stroke-width="1.51"/><path d="M1674,-208L1627,-2L1748,-93Z" fill="#bbaa8d" stroke="#bbaa8d" stroke-width="1.51"/><path d="M1627,-2L1658,73L1744,36Z" fill="#bdb791" stroke="#bdb791" stroke-width="1.51"/><path d="M1443,436L1586,594L1652,369Z" fill="#a3d1ef" stroke="#a3d1ef" stroke-width="1.51"/><path d="M1444,126L1443,224L1652,273Z" fill="#bfcbc1" stroke="#bfcbc1" stroke-width="1.51"/><path d="M1444,126L1652,273L1658,73Z" fill="#bdc5b2" stroke="#bdc5b2" stroke-width="1.51"/><path d="M1486,-90L1627,-2L1674,-208Z" fill="#c1ac8d" stroke="#c1ac8d" stroke-width="1.51"/><path d="M1590,710L1441,870L1689,854Z" fill="#6abce9" stroke="#6abce9" stroke-width="1.51"/><path d="M1441,870L1479,976L1689,854Z" fill="#5eb9e8" stroke="#5eb9e8" stroke-width="1.51"/><path d="M1479,976L1669,1046L1689,854Z" fill="#44b3e7" stroke="#44b3e7" stroke-width="1.51"/><path d="M1532,1113L1587,1286L1647,1112Z" fill="#2da9d9" stroke="#2da9d9" stroke-width="1.51"/><path d="M1473,-195L1486,-90L1674,-208Z" fill="#c3a78b" stroke="#c3a78b" stroke-width="1.51"/><path d="M1532,1113L1647,1112L1669,1046Z" fill="#27ade0" stroke="#27ade0" stroke-width="1.51"/><path d="M1479,976L1532,1113L1669,1046Z" fill="#37b1e5" stroke="#37b1e5" stroke-width="1.51"/><path d="M1443,224L1652,369L1652,273Z" fill="#b5cfd8" stroke="#b5cfd8" stroke-width="1.51"/><path d="M1627,-2L1444,126L1658,73Z" fill="#c3bd98" stroke="#c3bd98" stroke-width="1.51"/><path d="M1443,224L1443,436L1652,369Z" fill="#b8d6e8" stroke="#b8d6e8" stroke-width="1.51"/><path d="M1586,594L1529,648L1590,710Z" fill="#87c4eb" stroke="#87c4eb" stroke-width="1.51"/><path d="M1486,-90L1444,126L1627,-2Z" fill="#c8ba91" stroke="#c8ba91" stroke-width="1.51"/><path d="M1443,436L1434,578L1586,594Z" fill="#a0cfee" stroke="#a0cfee" stroke-width="1.51"/><path d="M1532,1113L1518,1339L1587,1286Z" fill="#36a6d3" stroke="#36a6d3" stroke-width="1.51"/><path d="M1529,648L1441,870L1590,710Z" fill="#7dc0ea" stroke="#7dc0ea" stroke-width="1.51"/><path d="M1434,578L1529,648L1586,594Z" fill="#93c9ed" stroke="#93c9ed" stroke-width="1.51"/><path d="M1443,224L1343,365L1443,436Z" fill="#c1d9e8" stroke="#c1d9e8" stroke-width="1.51"/><path d="M1363,-56L1444,126L1486,-90Z" fill="#cebb91" stroke="#cebb91" stroke-width="1.51"/><path d="M1319,1121L1295,1295L1518,1339Z" fill="#53abd4" stroke="#53abd4" stroke-width="1.51"/><path d="M1347,664L1441,870L1529,648Z" fill="#89c4eb" stroke="#89c4eb" stroke-width="1.51"/><path d="M1319,1121L1518,1339L1532,1113Z" fill="#49acd9" stroke="#49acd9" stroke-width="1.51"/><path d="M1479,976L1319,1121L1532,1113Z" fill="#4db3e4" stroke="#4db3e4" stroke-width="1.51"/><path d="M1434,578L1347,664L1529,648Z" fill="#97caed" stroke="#97caed" stroke-width="1.51"/><path d="M720,-238L1074,-205L1181,-242Z" fill="#e9b58d" stroke="#e9b58d" stroke-width="1.51"/><path d="M1347,664L1291,853L1441,870Z" fill="#86c4ea" stroke="#86c4ea" stroke-width="1.51"/><path d="M1353,242L1343,365L1443,224Z" fill="#c7d5d6" stroke="#c7d5d6" stroke-width="1.51"/><path d="M1363,-56L1303,72L1444,126Z" fill="#d4c294" stroke="#d4c294" stroke-width="1.51"/><path d="M1333,-206L1363,-56L1473,-195Z" fill="#ceae8d" stroke="#ceae8d" stroke-width="1.51"/><path d="M1288,1013L1319,1121L1479,976Z" fill="#5bb8e8" stroke="#5bb8e8" stroke-width="1.51"/><path d="M1473,-195L1363,-56L1486,-90Z" fill="#cbb08e" stroke="#cbb08e" stroke-width="1.51"/><path d="M1441,870L1288,1013L1479,976Z" fill="#66bbe9" stroke="#66bbe9" stroke-width="1.51"/><path d="M1291,853L1288,1013L1441,870Z" fill="#76bfea" stroke="#76bfea" stroke-width="1.51"/><path d="M1289,546L1434,578L1443,436Z" fill="#acd3ef" stroke="#acd3ef" stroke-width="1.51"/><path d="M1343,365L1289,546L1443,436Z" fill="#b8d9f1" stroke="#b8d9f1" stroke-width="1.51"/><path d="M1353,242L1443,224L1444,126Z" fill="#c8cdbf" stroke="#c8cdbf" stroke-width="1.51"/><path d="M1303,72L1353,242L1444,126Z" fill="#cecbb0" stroke="#cecbb0" stroke-width="1.51"/><path d="M1289,546L1347,664L1434,578Z" fill="#a4cfee" stroke="#a4cfee" stroke-width="1.51"/><path d="M878,1275L690,1244L1002,1326Z" fill="#8dbed7" stroke="#8dbed7" stroke-width="1.51"/><path d="M690,1244L382,1302L1002,1326Z" fill="#9cc2d3" stroke="#9cc2d3" stroke-width="1.51"/><path d="M1211,1198L1295,1295L1319,1121Z" fill="#62b1d9" stroke="#62b1d9" stroke-width="1.51"/><path d="M1188,497L1289,546L1343,365Z" fill="#bddaf1" stroke="#bddaf1" stroke-width="1.51"/><path d="M1227,682L1291,853L1347,664Z" fill="#97c8ec" stroke="#97c8ec" stroke-width="1.51"/><path d="M1303,72L1175,77L1353,242Z" fill="#d6ccac" stroke="#d6ccac" stroke-width="1.51"/><path d="M1175,77L1192,297L1353,242Z" fill="#d5d3c2" stroke="#d5d3c2" stroke-width="1.51"/><path d="M1192,297L1343,365L1353,242Z" fill="#cddadd" stroke="#cddadd" stroke-width="1.51"/><path d="M1333,-206L1219,-71L1363,-56Z" fill="#d5b48e" stroke="#d5b48e" stroke-width="1.51"/><path d="M1219,-71L1303,72L1363,-56Z" fill="#d8bf91" stroke="#d8bf91" stroke-width="1.51"/><path d="M1212,978L1288,1013L1291,853Z" fill="#78bfea" stroke="#78bfea" stroke-width="1.51"/><path d="M1222,873L1212,978L1291,853Z" fill="#83c2ea" stroke="#83c2ea" stroke-width="1.51"/><path d="M1289,546L1227,682L1347,664Z" fill="#a6cfee" stroke="#a6cfee" stroke-width="1.51"/><path d="M1147,350L1188,497L1343,365Z" fill="#cae0f3" stroke="#cae0f3" stroke-width="1.51"/><path d="M1192,297L1147,350L1343,365Z" fill="#d1dfe9" stroke="#d1dfe9" stroke-width="1.51"/><path d="M1181,-242L1219,-71L1333,-206Z" fill="#d7b08c" stroke="#d7b08c" stroke-width="1.51"/><path d="M1227,682L1222,873L1291,853Z" fill="#91c7ec" stroke="#91c7ec" stroke-width="1.51"/><path d="M1219,-71L1175,77L1303,72Z" fill="#dec593" stroke="#dec593" stroke-width="1.51"/><path d="M1288,1013L1211,1198L1319,1121Z" fill="#65b6e2" stroke="#65b6e2" stroke-width="1.51"/><path d="M1212,978L1211,1198L1288,1013Z" fill="#6bbbe6" stroke="#6bbbe6" stroke-width="1.51"/><path d="M1188,497L1227,682L1289,546Z" fill="#b2d5ef" stroke="#b2d5ef" stroke-width="1.51"/><path d="M1211,1198L1144,1327L1295,1295Z" fill="#68afd3" stroke="#68afd3" stroke-width="1.51"/><path d="M307,-212L437,-196L720,-238Z" fill="#f9b560" stroke="#f9b560" stroke-width="1.51"/><path d="M1074,-205L1084,-109L1181,-242Z" fill="#e1b48d" stroke="#e1b48d" stroke-width="1.51"/><path d="M1175,77L1074,63L1192,297Z" fill="#dfd3b1" stroke="#dfd3b1" stroke-width="1.51"/><path d="M1074,63L989,298L1192,297Z" fill="#e1dcc8" stroke="#e1dcc8" stroke-width="1.51"/><path d="M1032,1159L1211,1198L1212,978Z" fill="#74bbe3" stroke="#74bbe3" stroke-width="1.51"/><path d="M1013,990L1032,1159L1212,978Z" fill="#7ec2ea" stroke="#7ec2ea" stroke-width="1.51"/><path d="M1074,63L1175,77L1219,-71Z" fill="#e3c794" stroke="#e3c794" stroke-width="1.51"/><path d="M1084,-109L1074,63L1219,-71Z" fill="#e4c392" stroke="#e4c392" stroke-width="1.51"/><path d="M1181,-242L1084,-109L1219,-71Z" fill="#dfb78e" stroke="#dfb78e" stroke-width="1.51"/><path d="M1084,695L977,871L1222,873Z" fill="#9fcded" stroke="#9fcded" stroke-width="1.51"/><path d="M1013,990L1212,978L1222,873Z" fill="#85c4eb" stroke="#85c4eb" stroke-width="1.51"/><path d="M1188,497L1061,553L1227,682Z" fill="#bad7f0" stroke="#bad7f0" stroke-width="1.51"/><path d="M1061,553L1084,695L1227,682Z" fill="#b4d5ef" stroke="#b4d5ef" stroke-width="1.51"/><path d="M1084,695L1222,873L1227,682Z" fill="#a0cced" stroke="#a0cced" stroke-width="1.51"/><path d="M977,871L1013,990L1222,873Z" fill="#93c9ed" stroke="#93c9ed" stroke-width="1.51"/><path d="M1032,1159L1144,1327L1211,1198Z" fill="#73b6d8" stroke="#73b6d8" stroke-width="1.51"/><path d="M982,384L1061,553L1147,350Z" fill="#d5e6f5" stroke="#d5e6f5" stroke-width="1.51"/><path d="M1147,350L1061,553L1188,497Z" fill="#cae0f3" stroke="#cae0f3" stroke-width="1.51"/><path d="M989,298L1147,350L1192,297Z" fill="#dce2e3" stroke="#dce2e3" stroke-width="1.51"/><path d="M720,-238L907,-152L1074,-205Z" fill="#f1bc8f" stroke="#f1bc8f" stroke-width="1.51"/><path d="M1032,1159L1002,1326L1144,1327Z" fill="#79b6d6" stroke="#79b6d6" stroke-width="1.51"/><path d="M989,298L982,384L1147,350Z" fill="#e1e8ed" stroke="#e1e8ed" stroke-width="1.51"/><path d="M528,1247L382,1302L690,1244Z" fill="#a5bbb6" stroke="#a5bbb6" stroke-width="1.51"/><path d="M892,186L989,298L1074,63Z" fill="#ebddbe" stroke="#ebddbe" stroke-width="1.51"/><path d="M840,-70L1074,63L1084,-109Z" fill="#edc893" stroke="#edc893" stroke-width="1.51"/><path d="M907,-152L840,-70L1084,-109Z" fill="#f0c391" stroke="#f0c391" stroke-width="1.51"/><path d="M1074,-205L907,-152L1084,-109Z" fill="#e9bb8f" stroke="#e9bb8f" stroke-width="1.51"/><path d="M1061,553L911,674L1084,695Z" fill="#bedaf1" stroke="#bedaf1" stroke-width="1.51"/><path d="M911,674L977,871L1084,695Z" fill="#b2d4f0" stroke="#b2d4f0" stroke-width="1.51"/><path d="M982,384L875,502L1061,553Z" fill="#d7e7f5" stroke="#d7e7f5" stroke-width="1.51"/><path d="M840,-70L861,142L1074,63Z" fill="#f5d597" stroke="#f5d597" stroke-width="1.51"/><path d="M861,142L892,186L1074,63Z" fill="#f0dbaf" stroke="#f0dbaf" stroke-width="1.51"/><path d="M878,1275L1002,1326L1032,1159Z" fill="#83bbd8" stroke="#83bbd8" stroke-width="1.51"/><path d="M1013,990L883,1130L1032,1159Z" fill="#88c4e7" stroke="#88c4e7" stroke-width="1.51"/><path d="M875,502L911,674L1061,553Z" fill="#cde1f3" stroke="#cde1f3" stroke-width="1.51"/><path d="M882,982L883,1130L1013,990Z" fill="#8fcaed" stroke="#8fcaed" stroke-width="1.51"/><path d="M883,1130L878,1275L1032,1159Z" fill="#89c0df" stroke="#89c0df" stroke-width="1.51"/><path d="M911,674L848,885L977,871Z" fill="#b1d5f0" stroke="#b1d5f0" stroke-width="1.51"/><path d="M977,871L882,982L1013,990Z" fill="#99cdee" stroke="#99cdee" stroke-width="1.51"/><path d="M908,365L875,502L982,384Z" fill="#e4edf7" stroke="#e4edf7" stroke-width="1.51"/><path d="M908,365L982,384L989,298Z" fill="#e7ecf0" stroke="#e7ecf0" stroke-width="1.51"/><path d="M848,885L882,982L977,871Z" fill="#a3d1ef" stroke="#a3d1ef" stroke-width="1.51"/><path d="M892,186L908,365L989,298Z" fill="#ece8dc" stroke="#ece8dc" stroke-width="1.51"/><path d="M763,637L750,878L848,885Z" fill="#bedcf2" stroke="#bedcf2" stroke-width="1.51"/><path d="M840,-70L769,78L861,142Z" fill="#fcda99" stroke="#fcda99" stroke-width="1.51"/><path d="M724,398L743,487L875,502Z" fill="#eaf1f8" stroke="#eaf1f8" stroke-width="1.51"/><path d="M882,982L737,1035L883,1130Z" fill="#98cded" stroke="#98cded" stroke-width="1.51"/><path d="M892,186L692,251L908,365Z" fill="#f5ebd9" stroke="#f5ebd9" stroke-width="1.51"/><path d="M692,251L724,398L908,365Z" fill="#f8f4ef" stroke="#f8f4ef" stroke-width="1.51"/><path d="M724,398L875,502L908,365Z" fill="#eaf1f8" stroke="#eaf1f8" stroke-width="1.51"/><path d="M875,502L763,637L911,674Z" fill="#d2e4f4" stroke="#d2e4f4" stroke-width="1.51"/><path d="M763,637L848,885L911,674Z" fill="#c2dcf2" stroke="#c2dcf2" stroke-width="1.51"/><path d="M716,1130L878,1275L883,1130Z" fill="#95c6e1" stroke="#95c6e1" stroke-width="1.51"/><path d="M720,-238L840,-70L907,-152Z" fill="#f7c491" stroke="#f7c491" stroke-width="1.51"/><path d="M743,487L763,637L875,502Z" fill="#dfebf6" stroke="#dfebf6" stroke-width="1.51"/><path d="M716,1130L690,1244L878,1275Z" fill="#99c7df" stroke="#99c7df" stroke-width="1.51"/><path d="M861,142L692,251L892,186Z" fill="#f8e6c3" stroke="#f8e6c3" stroke-width="1.51"/><path d="M848,885L750,878L882,982Z" fill="#abd4f0" stroke="#abd4f0" stroke-width="1.51"/><path d="M750,878L737,1035L882,982Z" fill="#a7d4f0" stroke="#a7d4f0" stroke-width="1.51"/><path d="M737,1035L716,1130L883,1130Z" fill="#9ccde9" stroke="#9ccde9" stroke-width="1.51"/><path d="M634,721L750,878L763,637Z" fill="#cbe1f2" stroke="#cbe1f2" stroke-width="1.51"/><path d="M688,-16L769,78L840,-70Z" fill="#ffd796" stroke="#ffd796" stroke-width="1.51"/><path d="M769,78L692,251L861,142Z" fill="#fce5b9" stroke="#fce5b9" stroke-width="1.51"/><path d="M624,-160L688,-16L720,-238Z" fill="#ffc88a" stroke="#ffc88a" stroke-width="1.51"/><path d="M720,-238L688,-16L840,-70Z" fill="#fecd93" stroke="#fecd93" stroke-width="1.51"/><path d="M610,893L636,1036L737,1035Z" fill="#afd2e5" stroke="#afd2e5" stroke-width="1.51"/><path d="M610,893L737,1035L750,878Z" fill="#b4d7ec" stroke="#b4d7ec" stroke-width="1.51"/><path d="M634,721L610,893L750,878Z" fill="#c4dae7" stroke="#c4dae7" stroke-width="1.51"/><path d="M743,487L587,596L763,637Z" fill="#e3ebf2" stroke="#e3ebf2" stroke-width="1.51"/><path d="M575,139L692,251L769,78Z" fill="#ffe5b0" stroke="#ffe5b0" stroke-width="1.51"/><path d="M688,-16L575,139L769,78Z" fill="#ffdd96" stroke="#ffdd96" stroke-width="1.51"/><path d="M587,596L634,721L763,637Z" fill="#dae3e9" stroke="#dae3e9" stroke-width="1.51"/><path d="M692,251L613,375L724,398Z" fill="#fef5e7" stroke="#fef5e7" stroke-width="1.51"/><path d="M636,1036L716,1130L737,1035Z" fill="#a5d0e8" stroke="#a5d0e8" stroke-width="1.51"/><path d="M437,-196L624,-160L720,-238Z" fill="#fcbd77" stroke="#fcbd77" stroke-width="1.51"/><path d="M724,398L613,375L743,487Z" fill="#f6f5f4" stroke="#f6f5f4" stroke-width="1.51"/><path d="M613,375L587,596L743,487Z" fill="#efeee9" stroke="#efeee9" stroke-width="1.51"/><path d="M613,-23L575,139L688,-16Z" fill="#ffd884" stroke="#ffd884" stroke-width="1.51"/><path d="M624,-160L613,-23L688,-16Z" fill="#ffce85" stroke="#ffce85" stroke-width="1.51"/><path d="M562,1107L690,1244L716,1130Z" fill="#a5c8d8" stroke="#a5c8d8" stroke-width="1.51"/><path d="M636,1036L562,1107L716,1130Z" fill="#a8cbda" stroke="#a8cbda" stroke-width="1.51"/><path d="M562,1107L528,1247L690,1244Z" fill="#a6c2c8" stroke="#a6c2c8" stroke-width="1.51"/><path d="M549,196L613,375L692,251Z" fill="#ffebc7" stroke="#ffebc7" stroke-width="1.51"/><path d="M575,139L549,196L692,251Z" fill="#ffe4ad" stroke="#ffe4ad" stroke-width="1.51"/><path d="M389,1039L562,1107L610,893Z" fill="#b2c9c9" stroke="#b2c9c9" stroke-width="1.51"/><path d="M432,862L389,1039L610,893Z" fill="#becbc1" stroke="#becbc1" stroke-width="1.51"/><path d="M549,196L449,270L613,375Z" fill="#ffe7b9" stroke="#ffe7b9" stroke-width="1.51"/><path d="M420,494L587,596L613,375Z" fill="#f0e7d4" stroke="#f0e7d4" stroke-width="1.51"/><path d="M428,388L420,494L613,375Z" fill="#fae9ca" stroke="#fae9ca" stroke-width="1.51"/><path d="M490,-106L613,-23L624,-160Z" fill="#ffc776" stroke="#ffc776" stroke-width="1.51"/><path d="M587,596L442,647L634,721Z" fill="#dcddd3" stroke="#dcddd3" stroke-width="1.51"/><path d="M432,862L610,893L634,721Z" fill="#c8d4d2" stroke="#c8d4d2" stroke-width="1.51"/><path d="M442,647L432,862L634,721Z" fill="#d3d5c7" stroke="#d3d5c7" stroke-width="1.51"/><path d="M610,893L562,1107L636,1036Z" fill="#afced9" stroke="#afced9" stroke-width="1.51"/><path d="M458,130L575,139L613,-23Z" fill="#ffd880" stroke="#ffd880" stroke-width="1.51"/><path d="M437,-196L490,-106L624,-160Z" fill="#fcbe68" stroke="#fcbe68" stroke-width="1.51"/><path d="M449,270L428,388L613,375Z" fill="#ffeac3" stroke="#ffeac3" stroke-width="1.51"/><path d="M490,-106L458,130L613,-23Z" fill="#ffcf6d" stroke="#ffcf6d" stroke-width="1.51"/><path d="M420,494L442,647L587,596Z" fill="#e7dec6" stroke="#e7dec6" stroke-width="1.51"/><path d="M396,1161L528,1247L562,1107Z" fill="#abbeb7" stroke="#abbeb7" stroke-width="1.51"/><path d="M458,130L549,196L575,139Z" fill="#ffdc91" stroke="#ffdc91" stroke-width="1.51"/><path d="M324,-29L458,130L490,-106Z" fill="#ffc958" stroke="#ffc958" stroke-width="1.51"/><path d="M389,1039L396,1161L562,1107Z" fill="#b0c0b4" stroke="#b0c0b4" stroke-width="1.51"/><path d="M458,130L449,270L549,196Z" fill="#ffdd96" stroke="#ffdd96" stroke-width="1.51"/><path d="M338,686L432,862L442,647Z" fill="#d7d0b4" stroke="#d7d0b4" stroke-width="1.51"/><path d="M396,1161L382,1302L528,1247Z" fill="#abb7a6" stroke="#abb7a6" stroke-width="1.51"/><path d="M437,-196L324,-29L490,-106Z" fill="#fbbd54" stroke="#fbbd54" stroke-width="1.51"/><path d="M119,1295L-12,1344L250,1306Z" fill="#ada077" stroke="#ada077" stroke-width="1.51"/><path d="M338,686L259,828L432,862Z" fill="#d3caa8" stroke="#d3caa8" stroke-width="1.51"/><path d="M255,979L389,1039L432,862Z" fill="#c0c2a9" stroke="#c0c2a9" stroke-width="1.51"/><path d="M307,-212L324,-29L437,-196Z" fill="#f9b645" stroke="#f9b645" stroke-width="1.51"/><path d="M420,494L294,498L442,647Z" fill="#eddbb3" stroke="#eddbb3" stroke-width="1.51"/><path d="M294,498L338,686L442,647Z" fill="#e7d5ad" stroke="#e7d5ad" stroke-width="1.51"/><path d="M290,282L428,388L449,270Z" fill="#ffe1a4" stroke="#ffe1a4" stroke-width="1.51"/><path d="M324,-29L249,145L458,130Z" fill="#ffcc52" stroke="#ffcc52" stroke-width="1.51"/><path d="M290,282L449,270L458,130Z" fill="#ffdb8c" stroke="#ffdb8c" stroke-width="1.51"/><path d="M249,145L290,282L458,130Z" fill="#ffd472" stroke="#ffd472" stroke-width="1.51"/><path d="M294,498L420,494L428,388Z" fill="#f7e0b4" stroke="#f7e0b4" stroke-width="1.51"/><path d="M290,282L268,354L428,388Z" fill="#ffe1a0" stroke="#ffe1a0" stroke-width="1.51"/><path d="M259,828L255,979L432,862Z" fill="#c9c3a2" stroke="#c9c3a2" stroke-width="1.51"/><path d="M268,354L294,498L428,388Z" fill="#fee1aa" stroke="#fee1aa" stroke-width="1.51"/><path d="M389,1039L304,1139L396,1161Z" fill="#b4baa3" stroke="#b4baa3" stroke-width="1.51"/><path d="M304,1139L382,1302L396,1161Z" fill="#afb59b" stroke="#afb59b" stroke-width="1.51"/><path d="M304,1139L250,1306L382,1302Z" fill="#afb08d" stroke="#afb08d" stroke-width="1.51"/><path d="M255,979L304,1139L389,1039Z" fill="#b9bb9f" stroke="#b9bb9f" stroke-width="1.51"/><path d="M172,116L249,145L324,-29Z" fill="#ffc738" stroke="#ffc738" stroke-width="1.51"/><path d="M307,-212L109,-25L324,-29Z" fill="#fbb726" stroke="#fbb726" stroke-width="1.51"/><path d="M168,687L259,828L338,686Z" fill="#ddc797" stroke="#ddc797" stroke-width="1.51"/><path d="M294,498L162,562L338,686Z" fill="#edd29b" stroke="#edd29b" stroke-width="1.51"/><path d="M162,562L168,687L338,686Z" fill="#e6ca94" stroke="#e6ca94" stroke-width="1.51"/><path d="M109,-25L172,116L324,-29Z" fill="#fdbf24" stroke="#fdbf24" stroke-width="1.51"/><path d="M268,354L170,351L294,498Z" fill="#ffdc99" stroke="#ffdc99" stroke-width="1.51"/><path d="M119,1295L250,1306L304,1139Z" fill="#b2ab7f" stroke="#b2ab7f" stroke-width="1.51"/><path d="M107,1085L119,1295L304,1139Z" fill="#b5ac84" stroke="#b5ac84" stroke-width="1.51"/><path d="M255,979L107,1085L304,1139Z" fill="#bbb58e" stroke="#bbb58e" stroke-width="1.51"/><path d="M76,-246L109,-25L307,-212Z" fill="#f7a922" stroke="#f7a922" stroke-width="1.51"/><path d="M149,871L255,979L259,828Z" fill="#ccbd93" stroke="#ccbd93" stroke-width="1.51"/><path d="M249,145L83,245L290,282Z" fill="#ffd06a" stroke="#ffd06a" stroke-width="1.51"/><path d="M83,245L170,351L290,282Z" fill="#ffd37e" stroke="#ffd37e" stroke-width="1.51"/><path d="M170,351L162,562L294,498Z" fill="#fad596" stroke="#fad596" stroke-width="1.51"/><path d="M170,351L268,354L290,282Z" fill="#ffda8b" stroke="#ffda8b" stroke-width="1.51"/><path d="M172,116L83,245L249,145Z" fill="#ffc957" stroke="#ffc957" stroke-width="1.51"/><path d="M149,871L135,940L255,979Z" fill="#c7b991" stroke="#c7b991" stroke-width="1.51"/><path d="M168,687L149,871L259,828Z" fill="#d6c092" stroke="#d6c092" stroke-width="1.51"/><path d="M135,940L107,1085L255,979Z" fill="#c0b590" stroke="#c0b590" stroke-width="1.51"/><path d="M-138,-187L-75,-185L76,-246Z" fill="#f09421" stroke="#f09421" stroke-width="1.51"/><path d="M76,-246L-29,-49L109,-25Z" fill="#f6a722" stroke="#f6a722" stroke-width="1.51"/><path d="M-10,569L22,685L162,562Z" fill="#e8c191" stroke="#e8c191" stroke-width="1.51"/><path d="M-16,364L-10,569L162,562Z" fill="#f3c892" stroke="#f3c892" stroke-width="1.51"/><path d="M18,854L149,871L168,687Z" fill="#d4ba90" stroke="#d4ba90" stroke-width="1.51"/><path d="M22,685L18,854L168,687Z" fill="#d9ba90" stroke="#d9ba90" stroke-width="1.51"/><path d="M162,562L22,685L168,687Z" fill="#e5c392" stroke="#e5c392" stroke-width="1.51"/><path d="M-16,364L162,562L170,351Z" fill="#fcd195" stroke="#fcd195" stroke-width="1.51"/><path d="M109,-25L1,68L172,116Z" fill="#fcba29" stroke="#fcba29" stroke-width="1.51"/><path d="M1,68L83,245L172,116Z" fill="#fcc04d" stroke="#fcc04d" stroke-width="1.51"/><path d="M83,245L-16,364L170,351Z" fill="#ffce84" stroke="#ffce84" stroke-width="1.51"/><path d="M107,1085L-46,1102L119,1295Z" fill="#b4a583" stroke="#b4a583" stroke-width="1.51"/><path d="M31,250L-16,364L83,245Z" fill="#ffc879" stroke="#ffc879" stroke-width="1.51"/><path d="M-14,1002L107,1085L135,940Z" fill="#beae8e" stroke="#beae8e" stroke-width="1.51"/><path d="M18,854L135,940L149,871Z" fill="#cbb690" stroke="#cbb690" stroke-width="1.51"/><path d="M-46,1102L-115,1189L-12,1344Z" fill="#b0997c" stroke="#b0997c" stroke-width="1.51"/><path d="M-75,-185L-29,-49L76,-246Z" fill="#f39c21" stroke="#f39c21" stroke-width="1.51"/><path d="M1,68L31,250L83,245Z" fill="#fcc15b" stroke="#fcc15b" stroke-width="1.51"/><path d="M-46,1102L-12,1344L119,1295Z" fill="#af9d7b" stroke="#af9d7b" stroke-width="1.51"/><path d="M18,854L-14,1002L135,940Z" fill="#c5b08e" stroke="#c5b08e" stroke-width="1.51"/><path d="M-29,-49L1,68L109,-25Z" fill="#f9b023" stroke="#f9b023" stroke-width="1.51"/><path d="M-14,1002L-46,1102L107,1085Z" fill="#b9a78a" stroke="#b9a78a" stroke-width="1.51"/><path d="M-115,1189L-137,1264L-12,1344Z" fill="#ad9576" stroke="#ad9576" stroke-width="1.51"/><path d="M-16,364L-138,367L-10,569Z" fill="#f9c591" stroke="#f9c591" stroke-width="1.51"/><path d="M-132,955L-14,1002L18,854Z" fill="#c3a98c" stroke="#c3a98c" stroke-width="1.51"/><path d="M-140,875L-132,955L18,854Z" fill="#c7a88b" stroke="#c7a88b" stroke-width="1.51"/><path d="M-140,875L18,854L22,685Z" fill="#d2b08d" stroke="#d2b08d" stroke-width="1.51"/><path d="M-191,643L-140,875L22,685Z" fill="#d7ae8c" stroke="#d7ae8c" stroke-width="1.51"/><path d="M1,68L-117,227L31,250Z" fill="#fbbb58" stroke="#fbbb58" stroke-width="1.51"/><path d="M-117,227L-16,364L31,250Z" fill="#fec376" stroke="#fec376" stroke-width="1.51"/><path d="M-138,367L-143,589L-10,569Z" fill="#efbd8f" stroke="#efbd8f" stroke-width="1.51"/><path d="M-10,569L-143,589L22,685Z" fill="#e5ba8f" stroke="#e5ba8f" stroke-width="1.51"/><path d="M-143,589L-191,643L22,685Z" fill="#e1b48d" stroke="#e1b48d" stroke-width="1.51"/><path d="M-186,143L-117,227L1,68Z" fill="#f8b34b" stroke="#f8b34b" stroke-width="1.51"/><path d="M-117,227L-138,367L-16,364Z" fill="#fec181" stroke="#fec181" stroke-width="1.51"/><path d="M-29,-49L-214,-6L1,68Z" fill="#f6a822" stroke="#f6a822" stroke-width="1.51"/><path d="M-214,-6L-186,143L1,68Z" fill="#f7ab2d" stroke="#f7ab2d" stroke-width="1.51"/><path d="M-132,955L-46,1102L-14,1002Z" fill="#baa48b" stroke="#baa48b" stroke-width="1.51"/><path d="M-75,-185L-138,-187L-29,-49Z" fill="#f29920" stroke="#f29920" stroke-width="1.51"/><path d="M-138,-187L-214,-6L-29,-49Z" fill="#f39c21" stroke="#f39c21" stroke-width="1.51"/><path d="M-132,955L-115,1189L-46,1102Z" fill="#b69e86" stroke="#b69e86" stroke-width="1.51"/><path d="M-191,643L-143,589L-138,367Z" fill="#ecb78d" stroke="#ecb78d" stroke-width="1.51"/><path d="M-186,143L-138,367L-117,227Z" fill="#fab769" stroke="#fab769" stroke-width="1.51"/><path d="M-132,955L-137,1264L-115,1189Z" fill="#b39981" stroke="#b39981" stroke-width="1.51"/><path d="M-191,643L-137,1264L-132,955Z" fill="#c0a189" stroke="#c0a189" stroke-width="1.51"/><path d="M-140,875L-191,643L-132,955Z" fill="#cda78a" stroke="#cda78a" stroke-width="1.51"/><path d="M-186,143L-191,643L-138,367Z" fill="#fcbf8f" stroke="#fcbf8f" stroke-width="1.51"/><path d="M-214,-6L-191,643L-186,143Z" fill="#f9b56d" stroke="#f9b56d" stroke-width="1.51"/></svg>